<mxfile host="app.diagrams.net" modified="2022-08-10T20:34:16.073Z" agent="5.0 (Windows NT 10.0; Win64; x64) AppleWebKit/537.36 (KHTML, like Gecko) Chrome/103.0.0.0 Safari/537.36" etag="O-JUU2_Fz8IAkmpkUJza" version="20.2.3" type="github">
  <diagram name="Page-1" id="c37626ed-c26b-45fb-9056-f9ebc6bb27b6">
    <mxGraphModel dx="1422" dy="762" grid="1" gridSize="10" guides="1" tooltips="1" connect="1" arrows="1" fold="1" page="1" pageScale="1" pageWidth="1100" pageHeight="850" background="none" math="0" shadow="0">
      <root>
        <mxCell id="0" />
        <mxCell id="1" parent="0" />
        <mxCell id="fTy5v5BPIl_mD3Yy_Ick-1" value="" style="shape=mxgraph.cisco.computers_and_peripherals.workstation;sketch=0;html=1;pointerEvents=1;dashed=0;fillColor=#036897;strokeColor=#ffffff;strokeWidth=2;verticalLabelPosition=bottom;verticalAlign=top;align=center;outlineConnect=0;" vertex="1" parent="1">
          <mxGeometry x="467" y="450" width="83" height="62" as="geometry" />
        </mxCell>
        <mxCell id="fTy5v5BPIl_mD3Yy_Ick-2" value="" style="shape=mxgraph.cisco.computers_and_peripherals.workstation;sketch=0;html=1;pointerEvents=1;dashed=0;fillColor=#036897;strokeColor=#ffffff;strokeWidth=2;verticalLabelPosition=bottom;verticalAlign=top;align=center;outlineConnect=0;" vertex="1" parent="1">
          <mxGeometry x="580" y="450" width="83" height="62" as="geometry" />
        </mxCell>
        <mxCell id="fTy5v5BPIl_mD3Yy_Ick-3" value="" style="shape=mxgraph.cisco.computers_and_peripherals.workstation;sketch=0;html=1;pointerEvents=1;dashed=0;fillColor=#036897;strokeColor=#ffffff;strokeWidth=2;verticalLabelPosition=bottom;verticalAlign=top;align=center;outlineConnect=0;" vertex="1" parent="1">
          <mxGeometry x="700" y="450" width="83" height="62" as="geometry" />
        </mxCell>
        <mxCell id="fTy5v5BPIl_mD3Yy_Ick-4" value="" style="shape=mxgraph.cisco.computers_and_peripherals.workstation;sketch=0;html=1;pointerEvents=1;dashed=0;fillColor=#036897;strokeColor=#ffffff;strokeWidth=2;verticalLabelPosition=bottom;verticalAlign=top;align=center;outlineConnect=0;" vertex="1" parent="1">
          <mxGeometry x="820" y="450" width="83" height="62" as="geometry" />
        </mxCell>
        <mxCell id="fTy5v5BPIl_mD3Yy_Ick-5" value="WiFi/Printer" style="shape=mxgraph.cisco.computers_and_peripherals.printer;sketch=0;html=1;pointerEvents=1;dashed=0;fillColor=#036897;strokeColor=#ffffff;strokeWidth=2;verticalLabelPosition=bottom;verticalAlign=top;align=center;outlineConnect=0;" vertex="1" parent="1">
          <mxGeometry x="940" y="464" width="91" height="34" as="geometry" />
        </mxCell>
        <mxCell id="fTy5v5BPIl_mD3Yy_Ick-6" value="WiFi Modem/&lt;br&gt;Router" style="shape=mxgraph.cisco.modems_and_phones.cable_modem;sketch=0;html=1;pointerEvents=1;dashed=0;fillColor=#036897;strokeColor=#ffffff;strokeWidth=2;verticalLabelPosition=bottom;verticalAlign=top;align=center;outlineConnect=0;" vertex="1" parent="1">
          <mxGeometry x="589" y="180" width="74" height="35" as="geometry" />
        </mxCell>
        <mxCell id="fTy5v5BPIl_mD3Yy_Ick-7" value="10 port switch" style="shape=mxgraph.cisco.hubs_and_gateways.small_hub;sketch=0;html=1;pointerEvents=1;dashed=0;fillColor=#036897;strokeColor=#ffffff;strokeWidth=2;verticalLabelPosition=bottom;verticalAlign=top;align=center;outlineConnect=0;" vertex="1" parent="1">
          <mxGeometry x="655" y="350" width="90" height="45" as="geometry" />
        </mxCell>
        <mxCell id="fTy5v5BPIl_mD3Yy_Ick-8" value="Server" style="image;html=1;image=img/lib/clip_art/computers/Server_128x128.png" vertex="1" parent="1">
          <mxGeometry x="810" y="270" width="80" height="80" as="geometry" />
        </mxCell>
        <mxCell id="fTy5v5BPIl_mD3Yy_Ick-10" value="" style="shape=link;html=1;rounded=0;" edge="1" parent="1" source="fTy5v5BPIl_mD3Yy_Ick-7" target="fTy5v5BPIl_mD3Yy_Ick-2">
          <mxGeometry width="100" relative="1" as="geometry">
            <mxPoint x="783" y="380" as="sourcePoint" />
            <mxPoint x="883" y="380" as="targetPoint" />
          </mxGeometry>
        </mxCell>
        <mxCell id="fTy5v5BPIl_mD3Yy_Ick-11" value="" style="shape=link;html=1;rounded=0;" edge="1" parent="1" source="fTy5v5BPIl_mD3Yy_Ick-1" target="fTy5v5BPIl_mD3Yy_Ick-7">
          <mxGeometry width="100" relative="1" as="geometry">
            <mxPoint x="510" y="424" as="sourcePoint" />
            <mxPoint x="610" y="424" as="targetPoint" />
          </mxGeometry>
        </mxCell>
        <mxCell id="fTy5v5BPIl_mD3Yy_Ick-12" value="" style="shape=link;html=1;rounded=0;" edge="1" parent="1" source="fTy5v5BPIl_mD3Yy_Ick-7" target="fTy5v5BPIl_mD3Yy_Ick-3">
          <mxGeometry width="100" relative="1" as="geometry">
            <mxPoint x="1000" y="390" as="sourcePoint" />
            <mxPoint x="1100" y="390" as="targetPoint" />
          </mxGeometry>
        </mxCell>
        <mxCell id="fTy5v5BPIl_mD3Yy_Ick-13" value="" style="shape=link;html=1;rounded=0;" edge="1" parent="1" source="fTy5v5BPIl_mD3Yy_Ick-7" target="fTy5v5BPIl_mD3Yy_Ick-4">
          <mxGeometry width="100" relative="1" as="geometry">
            <mxPoint x="1000" y="390" as="sourcePoint" />
            <mxPoint x="1100" y="390" as="targetPoint" />
          </mxGeometry>
        </mxCell>
        <mxCell id="fTy5v5BPIl_mD3Yy_Ick-14" value="" style="shape=link;html=1;rounded=0;" edge="1" parent="1" source="fTy5v5BPIl_mD3Yy_Ick-7" target="fTy5v5BPIl_mD3Yy_Ick-5">
          <mxGeometry width="100" relative="1" as="geometry">
            <mxPoint x="1000" y="390" as="sourcePoint" />
            <mxPoint x="1100" y="390" as="targetPoint" />
          </mxGeometry>
        </mxCell>
        <mxCell id="fTy5v5BPIl_mD3Yy_Ick-15" value="" style="shape=link;html=1;rounded=0;" edge="1" parent="1" source="fTy5v5BPIl_mD3Yy_Ick-8" target="fTy5v5BPIl_mD3Yy_Ick-6">
          <mxGeometry width="100" relative="1" as="geometry">
            <mxPoint x="1000" y="390" as="sourcePoint" />
            <mxPoint x="1100" y="390" as="targetPoint" />
            <Array as="points" />
          </mxGeometry>
        </mxCell>
        <mxCell id="fTy5v5BPIl_mD3Yy_Ick-16" value="" style="shape=link;html=1;rounded=0;" edge="1" parent="1" source="fTy5v5BPIl_mD3Yy_Ick-8" target="fTy5v5BPIl_mD3Yy_Ick-7">
          <mxGeometry width="100" relative="1" as="geometry">
            <mxPoint x="1000" y="390" as="sourcePoint" />
            <mxPoint x="1100" y="390" as="targetPoint" />
          </mxGeometry>
        </mxCell>
      </root>
    </mxGraphModel>
  </diagram>
</mxfile>
